<svg width="5" height="17" viewBox="0 0 5 17" fill="none" xmlns="http://www.w3.org/2000/svg">
<path fill-rule="evenodd" clip-rule="evenodd" d="M0.940399 8.49999C0.940399 9.09172 1.45504 9.57141 2.08987 9.57141C2.72471 9.57141 3.23935 9.09172 3.23935 8.49999C3.23935 7.90825 2.72471 7.42856 2.08987 7.42856C1.45504 7.42856 0.940399 7.90825 0.940399 8.49999Z" stroke="black" stroke-width="1.7"/>
<path fill-rule="evenodd" clip-rule="evenodd" d="M0.940399 2.07143C0.940399 2.66316 1.45504 3.14286 2.08987 3.14286C2.72471 3.14286 3.23935 2.66316 3.23935 2.07143C3.23935 1.47969 2.72471 1 2.08987 1C1.45504 1 0.940399 1.47969 0.940399 2.07143Z" stroke="black" stroke-width="1.7"/>
<path fill-rule="evenodd" clip-rule="evenodd" d="M0.940399 14.9286C0.940399 15.5203 1.45504 16 2.08987 16C2.72471 16 3.23935 15.5203 3.23935 14.9286C3.23935 14.3368 2.72471 13.8571 2.08987 13.8571C1.45504 13.8571 0.940399 14.3368 0.940399 14.9286Z" stroke="black" stroke-width="1.7"/>
</svg>
