<svg width="22" height="22" viewBox="0 0 22 22" fill="none" xmlns="http://www.w3.org/2000/svg">
<path d="M14.1915 0L13.7357 0.45577C12.6652 1.52629 12.5074 3.16847 13.261 4.40834L8.65025 7.52374L8.5705 7.44399C6.81141 5.6849 3.94909 5.68485 2.18999 7.44399L1.73422 7.89972L7.46148 13.627L0 21.0885L0.911496 22L8.37298 14.5385L14.1003 20.2658L14.5561 19.81C16.3152 18.0509 16.3151 15.1886 14.5561 13.4295L14.4763 13.3497L17.5917 8.73899C18.8316 9.49261 20.4737 9.33487 21.5443 8.26431L22 7.80858L14.1915 0ZM14.0545 18.397L3.60302 7.94548C4.85358 7.11842 6.55854 7.25502 7.65901 8.35544L13.6446 14.341C14.745 15.4415 14.8816 17.1464 14.0545 18.397ZM13.5479 12.4213L9.57868 8.45212L14.1117 5.38927L16.6107 7.88829L13.5479 12.4213ZM17.8982 7.35281L14.6472 4.1018C14.0531 3.50762 13.9272 2.61976 14.2696 1.90111L20.0989 7.73046C19.3803 8.07288 18.4924 7.94698 17.8982 7.35281Z" fill="#161616" stroke="#161616"/>
</svg>
